<?xml version="1.0" encoding="UTF-8"?>
<svg id="Layer_1" data-name="Layer 1" xmlns="http://www.w3.org/2000/svg" viewBox="0 0 400 164.34">
  <defs>
    <style>
      .cls-1 {
        fill: #020d51;
      }

      .cls-2 {
        fill: #4db6f7;
      }
    </style>
  </defs>
  <path class="cls-2" d="M68.43,93.8c80.76,73.66,184.94,74.35,270.92,8.33,0,0,.37.45.37.45l-5.74,4.35,5.37-4.8.37.45c-38.26,34.47-87.19,58.78-139.61,61.14-53.28,2.87-106.14-17.78-148.12-49.98,0,0,16.44-19.95,16.44-19.95h0Z"/>
  <g>
    <path class="cls-1" d="M264.91.02v84.79c0,7.51-6.11,13.62-13.62,13.62s-13.62-6.11-13.62-13.62V.02h-29.3v84.79c0,23.66,19.25,42.91,42.91,42.91s42.91-19.25,42.91-42.91V.02h-29.3Z"/>
    <path class="cls-1" d="M160.25,84.81c0,7.51-6.11,13.62-13.62,13.62s-13.62-6.11-13.62-13.62V.02h-29.3v84.79c0,23.66,19.25,42.91,42.91,42.91s42.91-19.25,42.91-42.91v-28.26h-29.3v28.26Z"/>
  </g>
  <circle class="cls-1" cx="145.32" cy="149.81" r="14.52"/>
  <path class="cls-1" d="M371.2,44.33l28.72-20.47L382.91,0l-39.44,28.11V.02h-29.3v84.96h0c.09,23.58,19.3,42.74,42.9,42.74s42.91-19.25,42.91-42.91c0-18.71-12.06-34.62-28.8-40.48ZM357.09,99.33c-8.02,0-14.52-6.5-14.52-14.52s6.5-14.52,14.52-14.52,14.52,6.5,14.52,14.52-6.5,14.52-14.52,14.52Z"/>
  <path class="cls-1" d="M42.91,41.9c-4.76,0-9.33.81-13.61,2.25V.02H0v84.79c0,23.66,19.25,42.91,42.91,42.91s42.91-19.25,42.91-42.91-19.25-42.91-42.91-42.91Z"/>
  <circle class="cls-2" cx="42.91" cy="84.81" r="14.52"/>
</svg>